<svg width="266" height="65" viewBox="0 0 266 65" fill="none" xmlns="http://www.w3.org/2000/svg">
<g clip-path="url(#clip0_1138_4492)">
<path d="M79.5337 31.0692C79.5337 33.5438 79.0849 35.8566 78.1389 38.0075C77.1611 40.2233 75.9105 42.1156 74.2913 43.7813C72.6881 45.3986 70.7643 46.7086 68.5679 47.663C66.4195 48.6171 64.0949 49.1023 61.6419 49.1023H49.7461L55.6941 43.0536H61.6419C63.2933 43.0536 64.8645 42.7301 66.2913 42.1479C67.7181 41.5172 69.0167 40.6599 70.0909 39.5278C71.1651 38.3957 72.0147 37.1341 72.6399 35.6948C73.2653 34.2068 73.5859 32.6704 73.5859 31.0531C73.5859 29.4358 73.2653 27.8994 72.6399 26.4114C72.0147 24.972 71.1651 23.7104 70.0427 22.5784C68.9687 21.4947 67.6701 20.589 66.2431 19.9584C64.8163 19.3761 63.2451 19.0527 61.6419 19.0527H55.6941L49.7461 13.0039H61.6419C64.0949 13.0039 66.3875 13.5053 68.5679 14.4433C70.7161 15.3975 72.6399 16.6914 74.2431 18.3249C75.8945 19.9907 77.1449 21.8829 78.1389 24.0986C79.0849 26.2982 79.5337 28.5948 79.5337 31.0692Z" fill="white"/>
<path d="M110.67 13.0352V34.6101L86.8945 13.0352V13.0837V13.116V22.1406V49.1175H92.8423V27.5425L116.618 49.1175V49.0689V49.0204V39.9957V13.0352H110.67Z" fill="white"/>
<path d="M135.371 43.0687L132.325 49.1175H125.703L143.579 13.0352L155.507 37.117H148.805L143.579 26.5236L138.304 37.117L135.371 43.0687ZM161.471 49.1175H154.801L151.852 43.1171H158.473L161.471 49.1175Z" fill="white"/>
<path d="M183.005 28.8035H187.174C190.412 28.8035 192.609 26.8951 192.609 24.0809C192.609 21.3154 190.476 19.5526 187.142 19.5526C183.823 19.5526 181.627 21.4447 181.434 24.4207H174.829C175.07 17.9029 179.863 13.7949 187.318 13.7949C194.324 13.7949 199.358 17.6603 199.358 23.0784C199.358 27.0569 196.873 30.1622 193.058 30.9547V31.3913C197.739 31.9088 200.673 35.0625 200.673 39.6072C200.673 45.6398 195.046 50.0065 187.254 50.0065C179.639 50.0065 174.476 45.753 174.172 39.2676H181.017C181.226 42.1788 183.663 44.0225 187.334 44.0225C190.909 44.0225 193.394 42.0008 193.394 39.0574C193.394 36.0491 191.054 34.1893 187.222 34.1893H182.989V28.8035H183.005Z" fill="white"/>
<path d="M219.125 13.7793C226.243 13.7793 231.213 17.9034 231.213 23.8227C231.213 27.575 229.209 30.7935 223.293 36.4055L216.769 42.6806V43.1174H231.727V49.1014H207.101V44.0715L218.243 33.0738C223.053 28.3512 224.255 26.5562 224.255 24.3079C224.255 21.5424 222.027 19.5855 218.901 19.5855C215.583 19.5855 213.321 21.7849 213.321 24.955V25.1005H206.701V24.9873C206.685 18.3239 211.751 13.7793 219.125 13.7793Z" fill="white"/>
<path d="M238.457 39.3157H245.063C245.463 42.1785 247.981 44.0869 251.219 44.0869C254.891 44.0869 257.423 41.6123 257.423 37.8602C257.423 34.0595 254.875 31.5365 251.251 31.5365C248.607 31.5365 246.587 32.701 245.399 34.6418H239.019L240.719 14.668H262.185V20.6519H246.265L245.513 29.5148H245.945C247.387 27.4123 249.809 26.1509 253.191 26.1509C259.669 26.1509 264.269 30.9544 264.269 37.6984C264.269 45.0088 259.043 49.99 251.203 49.99C243.733 49.99 238.667 45.4779 238.457 39.3157Z" fill="white"/>
<path d="M32.6708 17.7755L29.6728 16.0449C29.6568 16.0449 29.6568 16.0449 29.6568 16.0611C29.8972 16.7242 30.9874 19.6354 29.3682 21.8673C28.0054 23.7757 25.4082 25.2151 25.4082 25.2151L34.5466 30.4391C34.5466 30.4391 34.8992 28.8702 35.1558 27.447C35.8292 23.6948 35.8932 19.9912 32.6708 17.7755Z" fill="url(#paint0_linear_1138_4492)"/>
<path d="M24.8636 26.8461L1.8095 13.5195C1.8095 13.5195 0.959807 16.2043 0.446781 18.2097C-0.531175 22.0751 0.879645 24.7761 3.23636 26.1184L14.7474 32.6846L24.8636 26.8461Z" fill="url(#paint1_linear_1138_4492)"/>
<path d="M32.6728 17.7743L1.90733 0C1.90733 0 1.05763 2.68474 0.544606 4.69021C-0.43335 8.55558 0.97747 11.2565 3.31816 12.5989L34.5486 30.4217C34.5486 30.4217 34.9014 28.8528 35.1578 27.4296C35.8312 23.6937 35.8954 19.99 32.6728 17.7743Z" fill="url(#paint2_linear_1138_4492)"/>
<path d="M33.9408 45.9942L1.74838 64.561C1.74838 64.561 0.914707 61.86 0.433745 59.8384C-0.496115 55.9567 1.0109 53.1912 3.46381 51.7841L36.1532 33.1365C36.1532 33.1365 36.49 34.7054 36.7304 36.1609C37.3236 39.9291 37.3396 43.6651 33.9408 45.9942Z" fill="#CD2D3D"/>
<path d="M32.8644 32.8956L1.65005 50.9125C1.65005 50.9125 0.800352 48.2277 0.303358 46.2061C-0.658566 42.3408 0.768286 39.6075 3.15706 38.265L34.8364 20.1835C34.8364 20.1835 35.1892 21.7524 35.4296 23.1918C36.087 26.9278 36.151 30.6315 32.8644 32.8956Z" fill="url(#paint3_linear_1138_4492)"/>
<path d="M32.6397 17.7588C32.6397 17.7588 31.6777 17.209 30.1065 16.2871C30.6997 16.7561 30.7639 18.0015 30.7799 18.4705C30.8761 22.3196 27.9743 24.5839 24.7679 25.9262L3.17269 38.2501C0.783911 39.6088 -0.642941 42.3259 0.318983 46.1912C0.815977 48.2128 1.66568 50.8976 1.66568 50.8976L32.2067 33.2689C35.1245 31.8779 37.1447 28.8697 37.1447 25.3926C37.1447 22.1094 35.3169 19.2306 32.6397 17.7588Z" fill="#CD2D3D"/>
<path d="M30.5705 16.5626C30.5705 16.5626 30.2017 16.3362 30.0895 16.2715C30.0895 16.2715 31.1637 18.471 30.2177 20.8647C29.5765 22.4982 27.7167 24.1155 25.5845 25.4578L24.4301 26.1048L3.15567 38.2508C0.766885 39.6092 18.9953 29.4526 25.8411 25.4901C27.9733 24.2609 29.8651 22.6598 30.5545 21.0102C31.6285 18.5357 30.5705 16.5626 30.5705 16.5626Z" fill="url(#paint4_linear_1138_4492)"/>
</g>
<defs>
<linearGradient id="paint0_linear_1138_4492" x1="25.4174" y1="23.2752" x2="35.5318" y2="23.3362" gradientUnits="userSpaceOnUse">
<stop stop-color="#882635"/>
<stop offset="1" stop-color="#7E1829"/>
</linearGradient>
<linearGradient id="paint1_linear_1138_4492" x1="0.130631" y1="23.1507" x2="24.8824" y2="23.2659" gradientUnits="userSpaceOnUse">
<stop stop-color="#CE2D3C"/>
<stop offset="1" stop-color="#7E1829"/>
</linearGradient>
<linearGradient id="paint2_linear_1138_4492" x1="0.181032" y1="15.3298" x2="35.581" y2="15.544" gradientUnits="userSpaceOnUse">
<stop stop-color="#CE2D3C"/>
<stop offset="1" stop-color="#7E1829"/>
</linearGradient>
<linearGradient id="paint3_linear_1138_4492" x1="0.00352654" y1="35.5431" x2="35.7926" y2="35.5431" gradientUnits="userSpaceOnUse">
<stop stop-color="#CE2D3C"/>
<stop offset="1" stop-color="#E5384A"/>
</linearGradient>
<linearGradient id="paint4_linear_1138_4492" x1="2.94705" y1="27.3323" x2="31.0389" y2="27.3323" gradientUnits="userSpaceOnUse">
<stop stop-color="#CE2D3C"/>
<stop offset="1" stop-color="#E95256"/>
</linearGradient>
<clipPath id="clip0_1138_4492">
<rect width="266" height="64.5631" fill="white"/>
</clipPath>
</defs>
</svg>
