<svg width="56" height="24" viewBox="0 0 56 24" fill="none" xmlns="http://www.w3.org/2000/svg">
<g clip-path="url(#clip0_1138_3951)">
<path d="M0.728027 1.07812V2.57243H11.3568V1.07812H0.728027ZM12.8637 1.07812V2.57243H28.0116C28.0116 2.57243 26.4643 1.07812 24.4152 1.07812H12.8637ZM30.9828 1.07812V2.57243H40.1458L39.6022 1.07812H30.9828ZM46.7169 1.07812L46.1732 2.57243H55.2548V1.07812H46.7169ZM0.728027 3.98449V5.47879H11.3568V3.98449H0.728027ZM12.8637 3.98658V5.47809H29.768C29.768 5.47809 29.5707 4.32809 29.2264 3.98658H12.8637ZM30.9828 3.98658V5.47809H41.1585L40.6553 3.98658H30.9828ZM45.6289 3.98658L45.1257 5.47809H55.2541V3.98658H45.6289ZM3.78285 6.89085V8.38725H8.38633V6.89085H3.78285ZM15.9185 6.89085V8.38725H20.522V6.89085H15.9185ZM25 6.89085V8.38725H29.6035C29.6035 8.38725 29.8962 7.59688 29.8962 6.89085H25ZM34.0383 6.89085V8.38725H42.1928L41.6492 6.89085H34.0383ZM44.6274 6.89085L44.0809 8.38725H52.2829V6.89085H44.6274ZM3.78354 9.79931V11.2936H8.38703V9.79931H3.78354ZM15.9192 9.79931V11.2936H27.6771C27.6771 11.2936 28.6598 10.5269 28.9734 9.79931H15.9192ZM34.0383 9.79931V11.2936H38.6418V10.4614L38.9345 11.2936H47.3678L47.6815 10.4614V11.2936H52.285V9.79931H43.6425L43.1839 11.065L42.7239 9.79931H34.0383ZM3.78285 12.7057V14.2H8.38633V12.7057H3.78285ZM15.9185 12.7057V14.2H28.9727C28.6591 13.4751 27.6764 12.7057 27.6764 12.7057H15.9185ZM34.0376 12.7057V14.2H38.6411V12.7057H34.0376ZM39.4775 12.7057L40.035 14.2H46.3579L46.8876 12.7057H39.4775ZM47.6794 12.7057V14.2H52.2829V12.7057H47.6794ZM3.78424 15.612V17.1063H8.38772V15.612H3.78424ZM15.9199 15.612V17.1063H20.5234V15.612H15.9199ZM25.0014 15.612V17.1063H29.8969C29.8969 16.401 29.6042 15.612 29.6042 15.612H25.0014ZM34.0397 15.612V17.1063H38.6432V15.612H34.0397ZM40.5243 15.612L41.0638 17.1063H45.3013L45.845 15.612H40.5243ZM47.6808 15.612V17.1063H52.2843V15.612H47.6808ZM0.813057 18.5184V20.0148H11.4418V18.5184H0.813057ZM12.8658 18.5184V20.0148H29.2292C29.5735 19.6719 29.7708 18.5184 29.7708 18.5184H12.8658ZM31.0678 18.5184V20.0148H38.6404V18.5184H31.0678ZM41.5712 18.5184L42.1259 20.0148H44.2824L44.803 18.5184H41.5712ZM47.6808 18.5184V20.0148H55.3391V18.5184H47.6808ZM0.813057 21.4269V22.9212H11.4418V21.4269H0.813057ZM12.8658 21.4269V22.9184H24.4152C26.4643 22.9184 28.0116 21.4269 28.0116 21.4269H12.8658ZM31.0678 21.4269V22.9212H38.6404V21.4269H31.0678ZM42.6236 21.4269L43.1568 22.917L43.2488 22.9191L43.7903 21.4275L42.6236 21.4269ZM47.6815 21.4269V22.9212H55.3398V21.4269H47.6815Z" fill="#6F6E7A"/>
</g>
<defs>
<clipPath id="clip0_1138_3951">
<rect width="55.0606" height="23" fill="white" transform="translate(0.856934 0.5)"/>
</clipPath>
</defs>
</svg>
