<svg width="84" height="28" viewBox="0 0 84 28" fill="none" xmlns="http://www.w3.org/2000/svg">
<g clip-path="url(#clip0_1138_3915)">
<path d="M20.8729 10.1904H11.2141V13.0564H18.0647C17.7253 17.068 14.3825 18.7899 11.2257 18.7899C10.2256 18.7943 9.23469 18.5995 8.31076 18.2167C7.38683 17.8339 6.5484 17.2709 5.84444 16.5606C5.14048 15.8502 4.58508 15.0067 4.21067 14.0794C3.83626 13.152 3.65035 12.1594 3.66378 11.1594C3.66378 6.82064 7.02275 3.4802 11.235 3.4802C14.4844 3.4802 16.3991 5.55158 16.3991 5.55158L18.405 3.47325C18.405 3.47325 15.8283 0.605713 11.13 0.605713C5.14731 0.605713 0.519287 5.65496 0.519287 11.1085C0.519287 16.4524 4.87267 21.6637 11.2812 21.6637C16.9183 21.6637 21.0449 17.8017 21.0449 12.0913C21.0449 10.8863 20.8698 10.1904 20.8698 10.1904H20.8729Z" fill="#6F6E7A"/>
<path d="M28.7846 8.1143C24.8208 8.1143 21.9802 11.2133 21.9802 14.8261C21.9802 18.4936 24.7344 21.6497 28.8308 21.6497C32.5385 21.6497 35.5758 18.8161 35.5758 14.9047C35.5758 10.4302 32.0425 8.11353 28.7846 8.11353V8.1143ZM28.8231 10.7728C30.7719 10.7728 32.6187 12.3489 32.6187 14.8878C32.6187 17.3719 30.7796 18.9935 28.8139 18.9935C26.6538 18.9935 24.9565 17.2639 24.9565 14.8677C24.9565 12.5225 26.6383 10.7728 28.8293 10.7728H28.8231Z" fill="#6F6E7A"/>
<path d="M43.5814 8.1143C39.6176 8.1143 36.7771 11.2133 36.7771 14.8261C36.7771 18.4936 39.5312 21.6497 43.6277 21.6497C47.3354 21.6497 50.3727 18.8161 50.3727 14.9047C50.3727 10.4302 46.8393 8.11353 43.5814 8.11353V8.1143ZM43.62 10.7728C45.5687 10.7728 47.4156 12.3489 47.4156 14.8878C47.4156 17.3719 45.5764 18.9935 43.6107 18.9935C41.4506 18.9935 39.7534 17.2639 39.7534 14.8677C39.7534 12.5225 41.4352 10.7728 43.6262 10.7728H43.62Z" fill="#6F6E7A"/>
<path d="M58.0947 8.12134C54.4565 8.12134 51.5974 11.3075 51.5974 14.884C51.5974 18.9574 54.9124 21.659 58.0314 21.659C59.9601 21.659 60.9862 20.893 61.7345 20.0143V21.3489C61.7345 23.6841 60.3165 25.0828 58.1765 25.0828C56.1089 25.0828 55.0721 23.5453 54.7049 22.6735L52.1035 23.7536C53.0262 25.7054 54.8839 27.7397 58.1981 27.7397C61.824 27.7397 64.5719 25.4616 64.5719 20.6831V8.5279H61.7453V9.6743C60.8735 8.73311 59.6793 8.12134 58.0962 8.12134H58.0947ZM58.357 10.7752C60.1406 10.7752 61.9721 12.2981 61.9721 14.8987C61.9721 17.5425 60.1437 18.999 58.3177 18.999C56.3782 18.999 54.5737 17.4252 54.5737 14.9234C54.5737 12.3251 56.4484 10.7752 58.357 10.7752Z" fill="#6F6E7A"/>
<path d="M77.2074 8.10571C73.776 8.10571 70.8945 10.8367 70.8945 14.8638C70.8945 19.1269 74.1061 21.655 77.5291 21.655C80.3928 21.655 82.1579 20.0889 83.1994 18.6848L80.8596 17.128C80.2524 18.0692 79.2372 18.9911 77.5438 18.9911C75.6414 18.9911 74.7665 17.9496 74.2242 16.939L83.2989 13.1742L82.8361 12.0711C81.9597 9.91094 79.9137 8.10571 77.2074 8.10571ZM77.3255 10.7086C78.5621 10.7086 79.4516 11.3659 79.8297 12.1544L73.769 14.6871C73.5067 12.726 75.3659 10.7086 77.3178 10.7086H77.3255Z" fill="#6F6E7A"/>
<path d="M66.5586 21.2527H69.5395V1.30493H66.5586V21.2527Z" fill="#6F6E7A"/>
</g>
<defs>
<clipPath id="clip0_1138_3915">
<rect width="83.3184" height="27.7728" fill="white" transform="translate(0.601318 0.113525)"/>
</clipPath>
</defs>
</svg>
