<svg width="67" height="34" viewBox="0 0 67 34" fill="none" xmlns="http://www.w3.org/2000/svg">
<path d="M23.0135 21.0901H25.1247V29.3369H23.0135V21.0901ZM41.8822 23.4651C41.8162 23.3992 41.1565 23.0033 40.1009 23.0033C38.7814 23.0033 37.7918 23.927 37.7918 25.1805C37.7918 26.434 38.7154 27.3576 40.1009 27.3576C41.0905 27.3576 41.7502 26.9618 41.8822 26.8958V29.1389C41.6183 29.2049 40.8926 29.4028 39.9689 29.4028C37.5938 29.4028 35.5486 27.8195 35.5486 25.1145C35.5486 22.6735 37.3959 20.8262 39.9689 20.8262C40.9585 20.8262 41.6843 21.0901 41.8822 21.0901V23.4651ZM20.1106 23.4651C20.0447 23.3992 19.3849 23.0033 18.3293 23.0033C17.0098 23.0033 16.0202 23.927 16.0202 25.1805C16.0202 26.434 16.9439 27.3576 18.3293 27.3576C19.3189 27.3576 19.9787 26.9618 20.1106 26.8958V29.1389C19.8467 29.2049 19.121 29.4028 18.1974 29.4028C15.8883 29.4028 13.7771 27.8195 13.7771 25.1145C13.7771 22.6735 15.6244 20.8262 18.1974 20.8262C19.187 20.8262 19.9127 21.0901 20.1106 21.0901V23.4651ZM52.768 25.2465C52.768 27.6215 50.9207 29.5348 48.4136 29.5348C45.9066 29.5348 44.0593 27.6215 44.0593 25.2465C44.0593 22.8714 45.9066 20.9581 48.4136 20.9581C50.9866 20.9581 52.768 22.8714 52.768 25.2465ZM48.4136 23.0693C47.1601 23.0693 46.2365 24.0589 46.2365 25.2465C46.2365 26.434 47.1601 27.4236 48.4136 27.4236C49.6672 27.4236 50.5908 26.434 50.5908 25.2465C50.5908 24.0589 49.6672 23.0693 48.4136 23.0693ZM32.9756 23.0033C32.9756 23.0033 32.052 22.7394 31.3263 22.7394C30.4686 22.7394 30.0068 23.0033 30.0068 23.3992C30.0068 23.927 30.6006 24.0589 30.9304 24.1909L31.5242 24.3888C32.8437 24.8506 33.5034 25.7742 33.5034 26.7639C33.5034 28.8091 31.6562 29.5348 30.0728 29.5348C28.9512 29.5348 27.8956 29.3369 27.8296 29.3369V27.4236C28.0276 27.4896 28.8852 27.7535 29.8089 27.7535C30.8645 27.7535 31.3263 27.4236 31.3263 26.9618C31.3263 26.5659 30.9304 26.302 30.4026 26.1701C30.2707 26.1041 30.0728 26.0381 29.9408 26.0381C28.7533 25.6423 27.8296 24.9826 27.8296 23.5971C27.8296 22.0797 29.0172 21.0241 30.9304 21.0241C31.9201 21.0241 32.9097 21.288 32.9756 21.288V23.0033Z" fill="#6F6E7A"/>
<path d="M11.5993 12.249C11.6011 12.1099 11.575 11.9719 11.5226 11.843C11.4701 11.7141 11.3925 11.597 11.2941 11.4987C11.1957 11.4003 11.0786 11.3226 10.9498 11.2702C10.8209 11.2178 10.6828 11.1917 10.5437 11.1934C10.4046 11.1917 10.2665 11.2178 10.1377 11.2702C10.0088 11.3226 9.89172 11.4003 9.79335 11.4987C9.69497 11.597 9.61728 11.7141 9.56486 11.843C9.51244 11.9719 9.48635 12.1099 9.48812 12.249V14.4262C9.48635 14.5653 9.51244 14.7034 9.56486 14.8322C9.61728 14.9611 9.69497 15.0782 9.79335 15.1766C9.89172 15.2749 10.0088 15.3526 10.1377 15.405C10.2665 15.4575 10.4046 15.4836 10.5437 15.4818C10.6828 15.4836 10.8209 15.4575 10.9498 15.405C11.0786 15.3526 11.1957 15.2749 11.2941 15.1766C11.3925 15.0782 11.4701 14.9611 11.5226 14.8322C11.575 14.7034 11.6011 14.5653 11.5993 14.4262V12.249Z" fill="#6F6E7A"/>
<path d="M17.2716 9.41301C17.2734 9.27389 17.2473 9.13583 17.1949 9.00696C17.1424 8.87809 17.0648 8.76102 16.9664 8.66264C16.868 8.56427 16.7509 8.48658 16.6221 8.43416C16.4932 8.38174 16.3551 8.35564 16.216 8.35742C15.6222 8.35742 15.2264 8.81924 15.2264 9.41301V14.4271C15.2246 14.5662 15.2507 14.7042 15.3031 14.8331C15.3556 14.962 15.4333 15.079 15.5316 15.1774C15.63 15.2758 15.7471 15.3535 15.8759 15.4059C16.0048 15.4583 16.1429 15.4844 16.282 15.4826C16.4211 15.4844 16.5592 15.4583 16.688 15.4059C16.8169 15.3535 16.934 15.2758 17.0324 15.1774C17.1307 15.079 17.2084 14.962 17.2608 14.8331C17.3133 14.7042 17.3394 14.5662 17.3376 14.4271V9.41301H17.2716ZM23.0114 5.52052C23.0132 5.38141 22.9871 5.24334 22.9346 5.11447C22.8822 4.9856 22.8045 4.86853 22.7062 4.77015C22.6078 4.67178 22.4907 4.59409 22.3618 4.54167C22.233 4.48925 22.0949 4.46316 21.9558 4.46493C21.8167 4.46316 21.6786 4.48925 21.5497 4.54167C21.4209 4.59409 21.3038 4.67178 21.2054 4.77015C21.107 4.86853 21.0294 4.9856 20.9769 5.11447C20.9245 5.24334 20.8984 5.38141 20.9002 5.52052V16.4723C20.8984 16.6114 20.9245 16.7494 20.9769 16.8783C21.0294 17.0072 21.107 17.1243 21.2054 17.2226C21.3038 17.321 21.4209 17.3987 21.5497 17.4511C21.6786 17.5035 21.8167 17.5296 21.9558 17.5279C22.0949 17.5296 22.233 17.5035 22.3618 17.4511C22.4907 17.3987 22.6078 17.321 22.7062 17.2226C22.8045 17.1243 22.8822 17.0072 22.9346 16.8783C22.9871 16.7494 23.0132 16.6114 23.0114 16.4723V5.52052ZM28.6852 9.41301C28.6869 9.27389 28.6609 9.13583 28.6084 9.00696C28.556 8.87809 28.4783 8.76102 28.3799 8.66264C28.2816 8.56427 28.1645 8.48658 28.0356 8.43416C27.9068 8.38174 27.7687 8.35564 27.6296 8.35742C27.4905 8.35564 27.3524 8.38174 27.2235 8.43416C27.0947 8.48658 26.9776 8.56427 26.8792 8.66264C26.7808 8.76102 26.7032 8.87809 26.6507 9.00696C26.5983 9.13583 26.5722 9.27389 26.574 9.41301V14.4271C26.5722 14.5662 26.5983 14.7042 26.6507 14.8331C26.7032 14.962 26.7808 15.079 26.8792 15.1774C26.9776 15.2758 27.0947 15.3535 27.2235 15.4059C27.3524 15.4583 27.4905 15.4844 27.6296 15.4826C27.7687 15.4844 27.9068 15.4583 28.0356 15.4059C28.1645 15.3535 28.2816 15.2758 28.3799 15.1774C28.4783 15.079 28.556 14.962 28.6084 14.8331C28.6609 14.7042 28.6869 14.5662 28.6852 14.4271V9.41301Z" fill="#6F6E7A"/>
<path d="M34.361 12.251C34.3628 12.1119 34.3367 11.9738 34.2843 11.8449C34.2319 11.7161 34.1542 11.599 34.0558 11.5006C33.9574 11.4022 33.8403 11.3246 33.7115 11.2721C33.5826 11.2197 33.4445 11.1936 33.3054 11.1954C33.1663 11.1936 33.0283 11.2197 32.8994 11.2721C32.7705 11.3246 32.6534 11.4022 32.5551 11.5006C32.4567 11.599 32.379 11.7161 32.3266 11.8449C32.2742 11.9738 32.2481 12.1119 32.2498 12.251V14.4281C32.2481 14.5673 32.2742 14.7053 32.3266 14.8342C32.379 14.9631 32.4567 15.0801 32.5551 15.1785C32.6534 15.2769 32.7705 15.3546 32.8994 15.407C33.0283 15.4594 33.1663 15.4855 33.3054 15.4837C33.4445 15.4855 33.5826 15.4594 33.7115 15.407C33.8403 15.3546 33.9574 15.2769 34.0558 15.1785C34.1542 15.0801 34.2319 14.9631 34.2843 14.8342C34.3367 14.7053 34.3628 14.5673 34.361 14.4281V12.251Z" fill="#6F6E7A"/>
<path d="M40.0348 9.41292C40.0348 9.13296 39.9235 8.86447 39.7256 8.66651C39.5276 8.46855 39.2591 8.35733 38.9792 8.35733C38.6992 8.35733 38.4307 8.46855 38.2328 8.66651C38.0348 8.86447 37.9236 9.13296 37.9236 9.41292V14.427C37.9236 14.7069 38.0348 14.9754 38.2328 15.1734C38.4307 15.3714 38.6992 15.4826 38.9792 15.4826C39.2591 15.4826 39.5276 15.3714 39.7256 15.1734C39.9235 14.9754 40.0348 14.7069 40.0348 14.427V9.41292ZM45.7086 5.52043C45.7086 5.24047 45.5973 4.97198 45.3994 4.77402C45.2014 4.57606 44.9329 4.46484 44.653 4.46484C44.373 4.46484 44.1045 4.57606 43.9066 4.77402C43.7086 4.97198 43.5974 5.24047 43.5974 5.52043V16.4722C43.5974 16.7521 43.7086 17.0206 43.9066 17.2186C44.1045 17.4166 44.373 17.5278 44.653 17.5278C44.9329 17.5278 45.2014 17.4166 45.3994 17.2186C45.5973 17.0206 45.7086 16.7521 45.7086 16.4722V5.52043ZM51.3824 9.41292C51.3824 9.2743 51.3551 9.13703 51.302 9.00896C51.249 8.88089 51.1712 8.76453 51.0732 8.66651C50.9752 8.56849 50.8588 8.49073 50.7307 8.43768C50.6027 8.38464 50.4654 8.35733 50.3268 8.35733C50.1881 8.35733 50.0509 8.38464 49.9228 8.43768C49.7947 8.49073 49.6784 8.56849 49.5804 8.66651C49.4823 8.76453 49.4046 8.88089 49.3515 9.00896C49.2985 9.13703 49.2712 9.2743 49.2712 9.41292V14.427C49.2712 14.5656 49.2985 14.7029 49.3515 14.8309C49.4046 14.959 49.4823 15.0754 49.5804 15.1734C49.6784 15.2714 49.7947 15.3492 49.9228 15.4022C50.0509 15.4553 50.1881 15.4826 50.3268 15.4826C50.4654 15.4826 50.6027 15.4553 50.7307 15.4022C50.8588 15.3492 50.9752 15.2714 51.0732 15.1734C51.1712 15.0754 51.249 14.959 51.302 14.8309C51.3551 14.7029 51.3824 14.5656 51.3824 14.427V9.41292ZM57.0562 12.2498C57.0562 11.9699 56.9449 11.7014 56.747 11.5034C56.549 11.3054 56.2805 11.1942 56.0006 11.1942C55.7206 11.1942 55.4521 11.3054 55.2541 11.5034C55.0562 11.7014 54.945 11.9699 54.945 12.2498V14.427C54.945 14.7069 55.0562 14.9754 55.2541 15.1734C55.4521 15.3714 55.7206 15.4826 56.0006 15.4826C56.2805 15.4826 56.549 15.3714 56.747 15.1734C56.9449 14.9754 57.0562 14.7069 57.0562 14.427V12.2498Z" fill="#6F6E7A"/>
</svg>
