<svg width="55" height="28" viewBox="0 0 55 28" fill="none" xmlns="http://www.w3.org/2000/svg">
<path d="M44.7201 9.01339C43.0722 0.988092 27.5476 0.474192 17.5401 6.58969V7.27054C27.5355 2.11084 41.7109 2.13469 43.0123 9.52684C43.4421 11.9748 42.0808 14.5187 39.6207 15.9875V17.9103C42.5704 16.8236 45.5922 13.3122 44.7201 9.01339ZM26.5198 23.0574C19.6168 23.7023 12.4168 22.6871 11.4133 17.2776C10.9116 14.6145 12.1297 11.7845 13.7421 10.0169V9.07369C10.8396 11.6297 9.26367 14.8535 10.1835 18.651C11.3422 23.5349 17.5162 26.3055 26.9383 25.3862C30.676 25.028 35.5603 23.822 38.9398 21.9468V19.2842C35.8587 21.135 30.7714 22.6587 26.5198 23.0574Z" fill="#6F6E7A"/>
<path d="M38.3917 7.8418H36.5764V15.9386C36.5764 16.894 37.03 17.7179 38.3917 17.8493M16.8241 10.8037H15.021V16.0939C15.021 17.0492 15.4746 17.8732 16.8363 18.0046M15.021 8.0929H16.8363V9.8119H15.021V8.0929ZM27.6795 17.9209C26.2107 17.9209 25.5897 16.894 25.5897 15.8959V8.85655H27.3807V10.8032H28.7419V12.2603H27.3802V15.7712C27.3802 16.1897 27.5827 16.4161 28.0012 16.4161H28.7302V17.9209H27.6795ZM32.4328 12.1775C31.824 12.1775 31.3461 12.5002 31.1548 12.9299C31.0356 13.1927 30.9996 13.3835 30.9757 13.7062H33.7464C33.7104 12.9178 33.3522 12.1775 32.4324 12.1775M30.9753 14.9243C30.9753 15.8437 31.5486 16.5245 32.5638 16.5245C33.3639 16.5245 33.7581 16.2977 34.2117 15.8437L35.3223 16.9066C34.6059 17.6113 33.8652 18.0406 32.5516 18.0406C30.8326 18.0406 29.1838 17.0969 29.1838 14.3506C29.1838 12.0106 30.6171 10.6844 32.5039 10.6844C34.4146 10.6844 35.5135 12.2369 35.5135 14.279V14.9239H30.9757M21.7089 12.2599C22.2345 12.2599 22.4491 12.5227 22.4491 12.9407V17.9204H24.2401V12.9412C24.2401 11.926 23.7028 10.8037 22.1265 10.8037H18.4252V17.933H20.2162V12.2603" fill="#6F6E7A"/>
</svg>
