<svg width="77" height="38" viewBox="0 0 77 38" fill="none" xmlns="http://www.w3.org/2000/svg">
<path fill-rule="evenodd" clip-rule="evenodd" d="M45.6535 25.6966C42.0246 28.3764 36.7477 29.8073 32.2104 29.8073C25.8486 29.8073 20.1206 27.4548 15.7879 23.5406C15.4475 23.2328 15.7522 22.8136 16.1608 23.0526C20.837 25.7742 26.6188 27.4103 32.5908 27.4103C36.6189 27.4103 41.0498 26.577 45.1242 24.8476C45.7398 24.5861 46.2541 25.2505 45.6522 25.6973M47.1651 23.9679C46.7021 23.3735 44.0993 23.6876 42.9218 23.8265C42.5652 23.8703 42.5108 23.5594 42.8317 23.336C44.9089 21.8732 48.3188 22.2955 48.7174 22.7854C49.1159 23.2753 48.6142 26.6958 46.6614 28.3276C46.3611 28.5778 46.0758 28.4446 46.2091 28.1123C46.6471 27.0174 47.6306 24.5642 47.1651 23.9679Z" fill="#6F6E7A"/>
<path fill-rule="evenodd" clip-rule="evenodd" d="M43.0019 13.0102V11.5886C43.0006 11.541 43.009 11.4937 43.0266 11.4494C43.0442 11.4052 43.0707 11.365 43.1044 11.3314C43.138 11.2977 43.1782 11.2712 43.2224 11.2536C43.2667 11.236 43.314 11.2276 43.3616 11.2289H49.7259C49.9299 11.2289 50.0938 11.3759 50.0938 11.5886V12.8056C50.0913 13.0095 49.9186 13.2767 49.6146 13.699L46.3173 18.4078C47.5436 18.3778 48.8362 18.5604 49.9474 19.1867C50.1977 19.3281 50.2602 19.5352 50.2853 19.7398V21.2571C50.2853 21.4635 50.0563 21.7063 49.816 21.5812C47.8577 20.5551 45.2568 20.4425 43.092 21.5918C42.8711 21.7119 42.6396 21.4717 42.6396 21.2652V19.8243C42.6396 19.5928 42.6421 19.1986 42.8736 18.8464L46.6946 13.3668H43.3754C43.1714 13.3668 43.0075 13.2229 43.0075 13.0102M19.784 21.8809H17.8482C17.663 21.8671 17.5166 21.7282 17.5022 21.5511V11.613C17.5022 11.4141 17.6686 11.2564 17.8751 11.2564H19.6807C19.8685 11.2645 20.0186 11.4091 20.0324 11.588V12.8869H20.068C20.5392 11.6312 21.4245 11.0456 22.617 11.0456C23.8289 11.0456 24.586 11.6312 25.1309 12.8869C25.6002 11.6312 26.6638 11.0456 27.8057 11.0456C28.6172 11.0456 29.505 11.3803 30.0468 12.1323C30.66 12.9682 30.5348 14.1833 30.5348 15.2482L30.5304 21.5211C30.5304 21.7201 30.364 21.8809 30.1575 21.8809H28.218C28.0303 21.8671 27.8695 21.7119 27.8695 21.5211V16.2467C27.8695 15.8275 27.907 14.7814 27.8151 14.3841C27.6711 13.7172 27.2376 13.5288 26.6763 13.5288C26.2071 13.5288 25.7178 13.8417 25.5189 14.3434C25.3199 14.8452 25.3393 15.6836 25.3393 16.2474V21.5155C25.3393 21.7144 25.1729 21.8752 24.9664 21.8752H23.0268C22.831 21.8615 22.6783 21.7063 22.6783 21.5155L22.6758 16.2474C22.6758 15.1387 22.8585 13.5069 21.4827 13.5069C20.0912 13.5069 20.1456 15.0974 20.1456 16.2474V21.5155C20.1456 21.7144 19.9792 21.8752 19.7727 21.8752M55.5734 11.0537C58.4465 11.0537 60.0019 13.5213 60.0019 16.6584C60.0019 19.6898 58.2832 22.0942 55.5734 22.0942C52.7579 22.0942 51.2156 19.6266 51.2156 16.5521C51.2156 13.4581 52.771 11.0462 55.5734 11.0462M55.5897 13.0752C54.1632 13.0752 54.0724 15.0198 54.0724 16.2317C54.0724 17.4436 54.0537 20.0389 55.5728 20.0389C57.0731 20.0389 57.1445 17.9473 57.1445 16.6728C57.1445 15.8344 57.1088 14.8315 56.8567 14.0362C56.6389 13.3443 56.206 13.0746 55.5903 13.0746M63.7284 21.8809H61.8C61.6124 21.8671 61.4516 21.7119 61.4516 21.5211L61.4491 11.5805C61.4653 11.3978 61.6261 11.2564 61.8219 11.2564H63.6176C63.7865 11.2645 63.9254 11.379 63.9636 11.5342V13.0546H63.9993C64.5411 11.6956 65.3007 11.0474 66.6383 11.0474C67.5143 11.0474 68.3539 11.3603 68.8989 12.2187C69.3994 13.0133 69.3994 14.351 69.3994 15.3126V21.5693C69.3775 21.7445 69.2167 21.8821 69.0265 21.8821H67.0882C66.9111 21.8684 66.7641 21.7382 66.7453 21.5693V16.1716C66.7453 15.0849 66.8705 13.4938 65.5334 13.4938C65.0623 13.4938 64.6293 13.8098 64.4072 14.2884C64.135 14.8953 64.0994 15.5003 64.0994 16.1704V21.5224C64.0969 21.7213 63.9279 21.8821 63.7208 21.8821M37.9277 17.127C37.9277 17.8816 37.9465 18.5035 37.5648 19.1805C37.257 19.7248 36.7671 20.0602 36.2246 20.0602C35.4814 20.0602 35.0453 19.4939 35.0453 18.6574C35.0453 17.0069 36.5243 16.7072 37.9265 16.7072V17.1264M39.8785 21.8465C39.7503 21.9609 39.5657 21.9691 39.4218 21.8928C38.7792 21.3591 38.6622 21.1107 38.3106 20.602C37.2482 21.6857 36.4943 22.0098 35.1185 22.0098C33.4874 22.0098 32.2204 21.0049 32.2204 18.9922C32.2204 17.4205 33.07 16.3506 34.2851 15.8275C35.3362 15.3645 36.804 15.2832 37.9265 15.1549V14.9047C37.9265 14.4442 37.9621 13.8999 37.6887 13.5019C37.4547 13.1453 37.0024 12.9983 36.6019 12.9983C35.8636 12.9983 35.2067 13.3768 35.0465 14.162C35.014 14.3372 34.8857 14.508 34.7087 14.5161L32.8317 14.3147C32.674 14.279 32.4969 14.152 32.5438 13.908C32.9743 11.6306 35.034 10.9448 36.8735 10.9448C37.8157 10.9448 39.047 11.1951 39.7903 11.9084C40.7326 12.788 40.6425 13.9618 40.6425 15.2394V18.257C40.6425 19.1642 41.0179 19.5615 41.3726 20.0527C41.4953 20.2279 41.5228 20.4368 41.3645 20.5676L39.8842 21.859L39.8817 21.8527M12.5425 17.1333C12.5425 17.8879 12.5613 18.5098 12.1796 19.1867C11.8718 19.7311 11.385 20.0664 10.8394 20.0664C10.0962 20.0664 9.66319 19.5002 9.66319 18.6637C9.66319 17.0132 11.1423 16.7135 12.5413 16.7135V17.1327M14.4933 21.8527C14.3651 21.9672 14.1805 21.9753 14.0366 21.899C13.394 21.3653 13.2858 21.1169 12.9254 20.6083C11.863 21.6919 11.111 22.016 9.73327 22.016C8.10528 22.0166 6.83643 21.0118 6.83643 18.9997C6.83643 17.428 7.68858 16.3581 8.90113 15.835C9.95225 15.372 11.4201 15.2907 12.5425 15.1624V14.9122C12.5425 14.4517 12.5782 13.9074 12.3085 13.5094C12.0708 13.1528 11.6203 13.0058 11.2217 13.0058C10.4834 13.0058 9.82461 13.3843 9.65756 14.1695C9.62503 14.3447 9.49676 14.5155 9.32283 14.5236L7.44332 14.3222C7.28566 14.2865 7.11172 14.1595 7.15552 13.9155C7.58848 11.6381 9.64567 10.9523 11.4851 10.9523C12.4274 10.9523 13.6587 11.2026 14.402 11.9159C15.3442 12.7955 15.2542 13.9693 15.2542 15.2469V18.2645C15.2542 19.1717 15.6296 19.569 15.9843 20.0602C16.1094 20.2354 16.137 20.4443 15.9781 20.5751L14.5015 21.859L14.4952 21.8527" fill="#6F6E7A"/>
</svg>
