<svg width="107" height="24" viewBox="0 0 107 24" fill="none" xmlns="http://www.w3.org/2000/svg">
<g clip-path="url(#clip0_1138_3907)">
<path d="M37.7498 13.7028L37.1239 15.4762H37.0717C36.9674 15.0763 36.7761 14.4678 36.4632 13.7376L33.1076 5.3051H29.8215V18.7449H31.9948V10.4515L31.9775 8.60854C31.9601 8.24342 31.9253 7.96523 31.9079 7.7566H31.9601C32.0644 8.27819 32.1861 8.66069 32.273 8.90411L36.3067 18.7101H37.8367L41.8356 8.81717C41.9225 8.59115 42.0095 8.1391 42.0964 7.7566H42.1486L42.0442 10.1733V18.6927H44.3566V5.27033H41.1923L37.7498 13.7028ZM46.5473 9.06058H48.8076V18.6927H46.5473V9.06058ZM47.6949 4.99214C47.3123 4.99214 46.9994 5.13124 46.7386 5.37465C46.4778 5.61806 46.3387 5.93101 46.3387 6.31352C46.3363 6.48668 46.3707 6.65838 46.4396 6.81724C46.5086 6.9761 46.6105 7.1185 46.7386 7.235C46.9994 7.47841 47.3123 7.60012 47.6949 7.60012C48.0774 7.60012 48.4077 7.46103 48.6511 7.235C48.7792 7.1185 48.8812 6.9761 48.9501 6.81724C49.019 6.65838 49.0534 6.48668 49.051 6.31352C49.051 5.9484 48.9119 5.63544 48.6511 5.37465C48.4251 5.13124 48.0947 4.99214 47.6949 4.99214ZM56.8228 8.97365C56.4055 8.88672 55.9708 8.83456 55.5536 8.83456C54.5277 8.83456 53.5889 9.06058 52.8065 9.51263C52.0241 9.96468 51.3982 10.5906 50.9983 11.373C50.581 12.1728 50.3724 13.0943 50.3724 14.1548C50.3724 15.0763 50.581 15.8935 50.9809 16.6411C51.3808 17.3713 51.9372 17.9625 52.6848 18.3624C53.3976 18.7623 54.2322 18.9709 55.171 18.9709C56.249 18.9709 57.1705 18.7449 57.9007 18.3276L57.9181 18.3102V16.2238L57.8312 16.2934C57.5008 16.5368 57.1183 16.7454 56.7358 16.8671C56.3359 17.0062 55.9708 17.0758 55.6579 17.0758C54.7538 17.0758 54.0409 16.815 53.5367 16.2412C53.0151 15.6848 52.7543 14.9198 52.7543 13.9636C52.7543 12.9725 53.0151 12.1902 53.5541 11.6164C54.0931 11.0426 54.8059 10.7471 55.6753 10.7471C56.4055 10.7471 57.1531 10.9905 57.8312 11.4773L57.9181 11.5469V9.33877L57.9007 9.32138C57.6052 9.19968 57.2748 9.06058 56.8228 8.97365ZM64.2816 8.90411C63.7252 8.90411 63.2036 9.07797 62.7516 9.44309C62.3691 9.75604 62.1083 10.2081 61.8822 10.7471H61.8648V9.06058H59.6046V18.6927H61.8648V13.7723C61.8648 12.9378 62.0387 12.2423 62.4212 11.7381C62.8037 11.2165 63.2905 10.9557 63.8817 10.9557C64.0903 10.9557 64.299 11.0079 64.5598 11.0426C64.8032 11.1122 64.977 11.1817 65.0987 11.2687L65.1857 11.3382V9.07797L65.1335 9.06058C64.977 8.95626 64.6641 8.90411 64.2816 8.90411ZM70.4364 8.85195C68.8542 8.85195 67.585 9.32138 66.6983 10.2429C65.7942 11.1644 65.3595 12.4336 65.3595 14.0331C65.3595 15.5284 65.8116 16.7454 66.6809 17.6321C67.5502 18.5015 68.7325 18.9535 70.2104 18.9535C71.7578 18.9535 72.9922 18.4841 73.8789 17.5452C74.783 16.6063 75.2177 15.3545 75.2177 13.8071C75.2177 12.2771 74.8004 11.06 73.9485 10.1733C73.1313 9.28661 71.9316 8.85195 70.4364 8.85195ZM72.2446 16.2586C71.8273 16.7976 71.1666 17.0584 70.3495 17.0584C69.5323 17.0584 68.8716 16.7976 68.4022 16.2238C67.9327 15.6848 67.7067 14.9024 67.7067 13.9114C67.7067 12.8856 67.9501 12.1032 68.4022 11.5469C68.8716 10.9905 69.5149 10.7123 70.3321 10.7123C71.1319 10.7123 71.7578 10.9731 72.2098 11.5121C72.6619 12.0511 72.9053 12.8335 72.9053 13.8593C72.8705 14.9024 72.6793 15.7196 72.2446 16.2586ZM80.2598 13.0595C79.5469 12.7639 79.0949 12.5379 78.8862 12.3466C78.7124 12.1728 78.6254 11.9294 78.6254 11.6164C78.6254 11.3556 78.7298 11.0948 78.9906 10.9209C79.2513 10.7471 79.5469 10.6601 79.9816 10.6601C80.3641 10.6601 80.764 10.7297 81.1465 10.834C81.529 10.9383 81.8767 11.0948 82.1549 11.3034L82.2418 11.373V9.25184L82.1897 9.23445C81.9289 9.13013 81.5811 9.02581 81.1639 8.93888C80.7466 8.86933 80.3641 8.83456 80.0511 8.83456C78.9732 8.83456 78.0865 9.09536 77.391 9.66911C76.6955 10.2081 76.3652 10.9383 76.3652 11.7903C76.3652 12.2423 76.4347 12.6422 76.5912 12.9725C76.7477 13.3029 76.9737 13.6158 77.2867 13.8766C77.5996 14.1201 78.0517 14.3982 78.6776 14.659C79.1992 14.8851 79.5991 15.0589 79.8425 15.198C80.0859 15.3371 80.2424 15.4936 80.3641 15.6153C80.451 15.7544 80.5032 15.9283 80.5032 16.1543C80.5032 16.7976 80.0164 17.1105 79.0253 17.1105C78.6428 17.1105 78.2429 17.041 77.7735 16.8845C77.3041 16.728 76.8694 16.502 76.5043 16.2412L76.4174 16.1717V18.3797L76.4695 18.3971C76.7999 18.5536 77.1997 18.6579 77.6866 18.7796C78.1734 18.8666 78.608 18.9361 78.9906 18.9361C80.1554 18.9361 81.1117 18.6753 81.7898 18.1016C82.4852 17.5452 82.8504 16.8323 82.8504 15.9109C82.8504 15.2676 82.6765 14.6938 82.294 14.2591C81.7898 13.8419 81.1639 13.4072 80.2598 13.0595ZM88.8139 8.85195C87.2318 8.85195 85.9625 9.32138 85.0758 10.2429C84.1891 11.1644 83.7371 12.4336 83.7371 14.0331C83.7371 15.5284 84.1891 16.7454 85.0584 17.6321C85.9278 18.5015 87.11 18.9535 88.5879 18.9535C90.1353 18.9535 91.3697 18.4841 92.2565 17.5452C93.1605 16.6063 93.5952 15.3545 93.5952 13.8071C93.5952 12.2771 93.1779 11.06 92.326 10.1733C91.5088 9.28661 90.3092 8.85195 88.8139 8.85195ZM90.6047 16.2586C90.1875 16.7976 89.5268 17.0584 88.7096 17.0584C87.875 17.0584 87.2318 16.7976 86.7623 16.2238C86.2929 15.6848 86.0669 14.9024 86.0669 13.9114C86.0669 12.8856 86.3103 12.1032 86.7623 11.5469C87.2318 10.9905 87.8751 10.7123 88.6922 10.7123C89.4746 10.7123 90.1179 10.9731 90.57 11.5121C91.022 12.0511 91.2654 12.8335 91.2654 13.8593C91.2654 14.9024 91.0394 15.7196 90.6047 16.2586ZM105.679 10.9209V9.06058H103.401V6.2092L103.332 6.22658L101.176 6.86989L101.124 6.88727V9.06058H97.7158V7.84353C97.7158 7.28716 97.8549 6.8525 98.0983 6.57431C98.3417 6.29613 98.7068 6.15704 99.1589 6.15704C99.4719 6.15704 99.8022 6.22658 100.167 6.38306L100.254 6.43522V4.47055L100.202 4.45316C99.8891 4.34884 99.4718 4.2793 98.9329 4.2793C98.2548 4.2793 97.6637 4.43578 97.1247 4.69657C96.5857 4.99214 96.1858 5.39203 95.8902 5.93101C95.5947 6.45261 95.4382 7.04375 95.4382 7.72182V9.06058H93.856V10.9036H95.4382V18.6927H97.7158V10.9209H101.124V15.8761C101.124 17.9103 102.08 18.9361 103.992 18.9361C104.305 18.9361 104.636 18.884 104.949 18.8318C105.279 18.7623 105.522 18.6753 105.661 18.6058L105.679 18.5884V16.728L105.592 16.7976C105.453 16.8845 105.331 16.9541 105.122 17.0062C104.949 17.0584 104.792 17.0758 104.67 17.0758C104.218 17.0758 103.905 16.9714 103.679 16.7106C103.471 16.4672 103.366 16.0673 103.366 15.4762V10.9209H105.679Z" fill="#6F6E7A"/>
<path d="M0.680908 0.785156H11.3388V11.4431H0.680908V0.785156Z" fill="#6F6E7A"/>
<path d="M12.4524 0.785156H23.1103V11.4431H12.4524V0.785156Z" fill="#6F6E7A"/>
<path d="M0.680908 12.5566H11.3388V23.2146H0.680908V12.5566Z" fill="#6F6E7A"/>
<path d="M12.4524 12.5566H23.1103V23.2146H12.4524V12.5566Z" fill="#6F6E7A"/>
</g>
<defs>
<clipPath id="clip0_1138_3907">
<rect width="106" height="24" fill="white" transform="translate(0.520752)"/>
</clipPath>
</defs>
</svg>
