<svg width="113" height="26" viewBox="0 0 113 26" fill="none" xmlns="http://www.w3.org/2000/svg">
<g clip-path="url(#clip0_1138_3930)">
<path fill-rule="evenodd" clip-rule="evenodd" d="M107.557 15.4397C110.017 15.4397 111.916 13.4353 111.941 11.0588C111.77 10.021 111.406 8.10107 108.712 8.10107C105.767 8.10107 104.79 12.218 102.392 14.8716C102.197 16.3812 100.77 17.7317 98.9854 17.958C99.4234 18.4159 100.395 18.662 101.554 18.662C103.679 18.662 106.251 18.0227 107.596 16.6946C105.801 16.7176 104.647 15.5644 104.533 13.9658C105.408 15.0267 106.398 15.4397 107.557 15.4397Z" fill="#292942"/>
<path fill-rule="evenodd" clip-rule="evenodd" d="M88.661 8.88894C88.661 7.58194 88.5818 6.7084 87.7268 6.7084C87.3369 6.7084 87.1462 6.78494 86.8051 6.89908C87.1079 11.3195 86.1097 15.2122 84.8904 15.2122C83.2918 15.2122 84.0901 5.73788 80.7022 5.73788C77.5802 5.73788 77.1316 13.3008 76.7766 13.3008C76.5345 13.3008 76.4982 11.3149 76.5107 9.8014C76.642 9.07433 76.7126 8.4238 76.7126 7.92897C76.7126 7.22434 76.4263 6.00641 74.827 6.61538C74.8837 12.0222 73.8004 15.2913 72.5818 15.2913C70.7925 15.2913 70.774 10.3879 70.774 9.03673C70.774 7.71719 70.8684 5.95363 68.9082 6.58173C68.614 11.2991 67.3789 14.8598 66.599 14.8598C65.4365 14.8598 65.6707 6.70906 63.157 6.70906C60.8986 6.70906 60.1999 14.4284 59.7289 14.4284C58.8863 14.4284 59.9921 5.73788 56.7302 5.73788C55.0181 5.73788 54.3385 8.64021 53.6682 11.8869C53.5376 12.5163 53.401 12.5348 53.3792 11.8256C53.3617 11.2192 53.3564 10.6125 53.3634 10.0059C54.1875 6.74205 53.182 5.53665 51.6704 6.40623C52.1573 12.4293 49.3936 15.3738 47.2718 15.3738C46.5045 15.3738 45.9021 15.0479 45.4508 14.5326C47.9949 12.9729 49.1251 11.1823 49.1251 9.43391C49.1251 7.53773 48.0364 6.44648 46.2287 6.44648C43.7044 6.44648 42.2938 9.04464 42.2938 11.2529C42.2938 12.4418 42.5148 13.4512 42.881 14.2839C42.0141 14.6975 41.1966 15.0551 40.4359 15.4022C40.3699 13.1299 40.1126 10.7435 39.9173 8.54256C38.5747 8.17243 38.1821 8.81834 38.0786 10.0138C37.841 12.742 36.8303 14.4343 35.9369 14.4343C35.264 14.4343 34.8543 13.6162 34.8048 12.7473C34.5554 8.37432 38.1056 7.15771 39.9615 7.79174C40.3468 6.82782 39.9239 6.13309 38.2494 6.13309C36.2173 6.13309 34.6992 7.36685 33.5862 8.9503C32.8426 10.0059 31.9849 10.7548 30.8442 11.6606C30.8732 11.4 30.8891 11.1394 30.8891 10.8834C30.8891 7.79966 29.2179 6.44648 27.6225 6.44648C26.3023 6.44648 25.473 7.2382 24.9914 8.45217C24.8726 7.2349 24.6305 6.70906 23.9226 6.70906C23.6191 6.70906 23.1988 6.79483 22.7462 7.01388C22.9534 7.69344 23.0339 9.20101 23.0339 10.1933C23.0339 13.9012 21.9716 15.5625 20.949 15.5625C19.7812 15.5625 19.5951 11.1645 19.4975 9.45304C19.3147 9.3829 19.1206 9.34711 18.9248 9.34748C17.8685 9.34748 17.7306 10.7673 17.47 12.0723C17.1811 13.5185 16.3478 15.3375 15.114 15.3375C14.3685 15.3375 13.9033 14.6184 13.8453 13.3252C13.7239 10.704 15.9051 7.59711 19.318 8.56367C19.7654 7.51926 19.0634 6.72424 17.6468 6.72424C15.1523 6.72424 13.0898 8.59138 12.1906 10.8009C11.2774 12.8264 9.67882 15.802 6.42749 15.802C4.13149 15.802 2.37519 13.8003 2.37519 9.59819C2.37519 5.97606 4.65799 2.53537 7.09451 2.53537C8.79869 2.53537 9.1939 4.21118 9.04413 5.78539C9.92558 6.49464 11.3744 5.83553 11.3744 4.06471C11.3744 2.84414 10.3835 0.775106 7.1849 0.775106C3.22563 0.775106 -0.272461 4.72316 -0.272461 9.91158C-0.272461 14.9337 2.27688 17.9027 5.88582 17.9027C8.16202 17.9027 10.3109 16.603 11.794 14.2067C12.1668 16.3047 13.5972 17.1882 14.6693 17.1882C16.4038 17.1882 17.5367 16.0659 18.1555 14.5445C18.5415 16.0685 19.3563 17.1941 20.7088 17.1941C21.6629 17.1941 22.4064 16.7118 22.9666 15.9366C22.7449 21.2299 22.4638 24.6046 25.5918 23.9396C25.1088 22.4353 24.9544 19.6953 24.9544 17.2357C24.9544 10.5041 26.0648 8.28921 27.4563 8.28921C28.4644 8.28921 28.791 9.57444 28.791 10.9454C28.791 11.6798 28.7211 12.5236 28.5337 13.2856C26.8242 14.3644 25.4585 15.2155 25.4585 16.2975C25.4585 17.1532 26.0932 17.233 26.6428 17.233C27.9557 17.233 29.5359 15.9445 30.4094 13.5133C31.1734 13.0514 31.9387 12.5216 32.6717 11.8005C32.6473 12.0473 32.6322 12.2953 32.6322 12.5487C32.6322 14.9628 33.6898 16.4202 35.3761 16.4202C36.6977 16.4202 37.6893 15.4833 38.3886 14.08C38.4328 14.8889 38.4599 15.6338 38.4724 16.3199C35.7918 17.5583 32.8248 18.8185 32.8248 22.3152C32.8248 24.1243 34.1312 25.4867 35.8334 25.4867C39.5676 25.4867 40.4188 21.5453 40.4544 16.9665C41.6697 16.4387 42.5755 16.0323 43.6206 15.5163C44.5139 16.634 45.7279 17.1948 46.8423 17.1948C48.9502 17.1948 50.5323 16.0778 51.8037 13.8134C52.0294 15.5368 52.476 17.1948 53.3918 17.1948C55.063 17.1948 55.4008 8.45943 56.6438 8.45943C57.5952 8.45943 56.8133 17.9113 59.3257 17.9113C61.4766 17.9113 61.8804 9.59357 62.9274 9.59357C63.6696 9.59357 63.7257 17.1961 66.0679 17.1961C67.2199 17.1961 68.4695 15.8119 69.0962 12.9115C69.3898 14.8407 70.365 17.1961 72.2684 17.1961C73.3788 17.1961 74.3335 16.0725 75.0704 14.5788C75.2737 16.116 75.7091 17.1961 76.5503 17.1961C78.7388 17.1961 78.6655 8.47922 80.3981 8.47922C81.7493 8.47922 81.331 17.1961 84.548 17.1961C86.0787 17.1961 86.8044 15.8911 87.2359 14.2548C87.8277 16.6623 88.7844 17.1961 89.5708 17.1961C90.069 17.1961 90.4457 17.0206 90.9392 16.4321C88.4519 15.3527 88.661 11.4257 88.661 8.88894ZM35.9897 23.8564C35.2171 23.8564 34.8087 23.1234 34.8087 22.2928C34.8087 20.0582 36.4502 18.8712 38.4731 17.8526C38.3807 22.7395 37.2453 23.8564 35.9897 23.8564ZM46.038 8.0154C46.7901 8.0154 47.221 8.70618 47.1464 9.69979C47.0587 10.8669 46.2095 12.2016 44.7336 13.2513C43.9617 11.0576 44.535 8.0154 46.038 8.0154ZM69.8715 4.71128C70.5886 4.68687 71.0894 4.07131 71.092 3.33897C71.0947 2.60662 70.5999 2.03197 69.8827 2.0577C69.1655 2.08211 68.581 2.69635 68.5777 3.42935C68.5744 4.1617 69.1536 4.7357 69.8715 4.71128ZM87.6997 5.08273C88.3522 5.05964 88.8847 4.47377 88.8873 3.77639C88.8906 3.0777 88.3635 2.53141 87.7096 2.5545C87.0558 2.57825 86.5247 3.16413 86.5214 3.8615C86.5187 4.55954 87.0466 5.10649 87.6997 5.08273ZM111.936 10.8834C111.882 8.12097 110.567 5.79001 108.541 3.92946C107.003 2.52415 105.174 1.45731 103.258 0.653709C103.104 0.58855 102.948 0.525427 102.793 0.464355H102.792C100.432 3.29146 92.26 5.4014 92.26 11.3288C92.26 13.6459 93.7234 15.8125 95.8723 16.6821C97.1179 17.1532 98.3642 17.1789 99.6112 16.76C100.72 16.3958 101.631 15.7083 102.389 14.8704C104.79 12.2168 105.766 8.10117 108.711 8.10117C111.405 8.10117 111.768 10.0191 111.94 11.0576C111.94 11.055 111.939 10.9824 111.936 10.8834Z" fill="#6F6E7A"/>
</g>
<defs>
<clipPath id="clip0_1138_3930">
<rect width="112.82" height="25.0712" fill="white" transform="translate(0.0693359 0.464355)"/>
</clipPath>
</defs>
</svg>
