<svg width="108" height="26" viewBox="0 0 108 26" fill="none" xmlns="http://www.w3.org/2000/svg">
<g clip-path="url(#clip0_1138_3923)">
<path d="M61.4941 15.576L67.8383 9.39745H61.5899V6.48786H72.2777V9.44506L65.9325 15.6002H72.3984V18.5094H61.4965L61.4941 15.576ZM56.9865 2.53382H60.2915V5.52489H56.9865V2.53382ZM56.9417 6.52414H60.247V18.5458H56.9417V6.52414ZM16.966 12.4988C16.9792 9.06259 19.7826 6.28663 23.2303 6.2953C26.6781 6.3041 29.4676 9.09433 29.463 12.5306C29.4588 15.9665 26.6624 18.7501 23.2146 18.7501C22.3921 18.7515 21.5775 18.5905 20.8174 18.2765C20.0572 17.9625 19.3665 17.5016 18.7848 16.9201C18.2044 16.34 17.7448 15.6506 17.4326 14.8916C17.1204 14.1327 16.9618 13.3194 16.966 12.4988ZM26.2537 12.4988C26.2537 10.7917 24.9025 9.37118 23.2144 9.37118C21.5016 9.37118 20.1983 10.7901 20.1983 12.4988C20.1983 14.2075 21.5016 15.6266 23.2144 15.6266C24.9025 15.6239 26.2545 14.2059 26.2545 12.4988H26.2537ZM44.3784 6.48786H47.6606V7.83437C48.4318 6.84686 49.6137 6.24755 50.9886 6.24755C53.8363 6.24755 55.5492 8.07482 55.5492 11.176V18.5095H52.1955V11.6091C52.1955 9.99823 51.4471 9.05753 49.9761 9.05753C48.7217 9.05753 47.6843 9.92248 47.6843 11.9383V18.5022H44.3809L44.3784 6.48786ZM72.5865 12.4988C72.5865 8.24271 75.725 6.24355 78.4504 6.24355C80.0195 6.24355 81.249 6.81966 82.0445 7.66261V6.488H85.3479V18.5096H82.0445V17.1631C81.249 18.1006 79.9698 18.7501 78.4024 18.7501C75.8446 18.7501 72.5865 16.7332 72.5865 12.4988ZM82.1394 12.4749C82.1394 10.6954 80.8368 9.25263 79.0516 9.25263C77.2179 9.25263 75.8191 10.6229 75.8191 12.4749C75.8191 14.3266 77.2179 15.7202 79.0516 15.7202C80.8387 15.7202 82.141 14.2535 82.141 12.4749H82.1394ZM86.6843 6.48786H89.9655V7.83437C90.7378 6.84686 91.9195 6.24755 93.2948 6.24755C96.1414 6.24755 97.8544 8.07482 97.8544 11.176V18.5095H94.5005V11.6091C94.5005 9.99823 93.7571 9.05753 92.2814 9.05753C91.0268 9.05753 89.9894 9.92248 89.9894 11.9383V18.5022H86.686L86.6843 6.48786ZM61.4941 18.5095V15.576L67.8383 9.39745H61.5899V6.48786H72.2777V9.44506L65.9325 15.6002M13.4401 12.3941L13.3947 12.4896C12.4821 14.4066 10.8041 15.5062 8.79051 15.5062C5.87092 15.5062 3.58744 13.2067 3.58744 10.2715C3.58744 7.26147 5.85518 4.9924 8.86306 4.9924C10.8122 4.9924 12.2929 5.90189 13.2652 7.69702L13.3171 7.7925L16.2589 5.91843L16.2094 5.83601C14.6813 3.24261 11.9344 1.69434 8.86306 1.69434C3.95471 1.69434 0.253906 5.38247 0.253906 10.2732C0.253906 15.2444 3.87469 18.8526 8.86306 18.8526C12.078 18.8526 14.9184 17.0743 16.4612 14.0955L16.5075 14.0055L13.4401 12.3941ZM30.2956 12.4988C30.2956 8.24271 33.434 6.24355 36.1594 6.24355C37.7285 6.24355 38.9575 6.893 39.7535 7.78183V6.488H43.0569V18.1754C43.0569 21.5658 40.9096 24.3067 36.8324 24.3067C33.7683 24.3067 31.5251 22.7189 30.5558 20.8439L33.4753 19.2094C34.1021 20.4594 35.2097 21.2531 36.8284 21.2531C38.614 21.2531 39.7471 19.8587 39.7471 18.2956V17.1631C38.9507 18.1006 37.6725 18.7501 36.1049 18.7501C33.5522 18.7501 30.2956 16.7332 30.2956 12.4988ZM39.8485 12.4749C39.8485 10.6954 38.5461 9.25263 36.7605 9.25263C34.9269 9.25263 33.5282 10.6229 33.5282 12.4749C33.5282 14.3266 34.9269 15.7202 36.7605 15.7202C38.5463 15.7202 39.8485 14.2535 39.8485 12.4749ZM105.994 9.44506V6.48786H103.726V2.52235H100.423V6.48786H98.3704V9.44506H100.419V13.2923C100.419 17.2118 101.673 18.5095 105.509 18.5095H105.992V15.4321C103.965 15.4321 103.724 15.1434 103.724 13.2683V9.44506H105.994ZM106.695 3.95701C106.617 4.03557 106.524 4.0979 106.421 4.14043C106.319 4.18295 106.209 4.20485 106.098 4.20485C105.987 4.20485 105.877 4.18295 105.775 4.14043C105.673 4.0979 105.579 4.03557 105.501 3.95701C105.421 3.87967 105.358 3.78684 105.316 3.68422C105.273 3.5816 105.252 3.47135 105.253 3.36024C105.254 2.98003 105.511 2.64771 105.88 2.54996C106.248 2.45221 106.637 2.61343 106.827 2.94296C106.92 3.10321 106.957 3.28958 106.932 3.473C106.908 3.65643 106.823 3.82661 106.692 3.95701H106.695ZM105.585 2.85001C105.517 2.91638 105.463 2.99605 105.427 3.0841C105.39 3.17215 105.372 3.26671 105.374 3.36197C105.372 3.45757 105.39 3.55248 105.426 3.64103C105.462 3.72957 105.516 3.80992 105.584 3.87726C105.651 3.94489 105.731 3.99855 105.819 4.03516C105.908 4.07178 106.002 4.09062 106.097 4.09062C106.193 4.09062 106.287 4.07178 106.376 4.03516C106.464 3.99855 106.544 3.94489 106.611 3.87726C106.68 3.81026 106.734 3.73 106.77 3.6414C106.806 3.5528 106.824 3.45772 106.823 3.36197C106.824 3.21819 106.782 3.07737 106.702 2.95759C106.623 2.83782 106.509 2.74457 106.376 2.68985C106.243 2.63488 106.097 2.62076 105.956 2.64929C105.815 2.67781 105.685 2.74768 105.584 2.85001H105.585ZM106.081 2.89695C106.166 2.89256 106.252 2.90372 106.334 2.92989C106.38 2.94813 106.419 2.98075 106.444 3.02288C106.47 3.06501 106.482 3.11439 106.478 3.16367C106.48 3.19939 106.473 3.23509 106.457 3.26719C106.441 3.29928 106.417 3.32664 106.387 3.3465C106.346 3.3701 106.301 3.38517 106.254 3.39091C106.317 3.39718 106.375 3.43011 106.412 3.48146C106.443 3.52253 106.461 3.57227 106.462 3.62375V3.76031C106.463 3.77644 106.465 3.79271 106.47 3.80805L106.476 3.81965H106.323C106.322 3.81665 106.322 3.81358 106.323 3.81058V3.6979C106.328 3.65804 106.323 3.61746 106.308 3.5803C106.292 3.54315 106.267 3.51074 106.235 3.48639C106.178 3.46225 106.116 3.4521 106.054 3.45679H105.925V3.81978H105.76V2.89709L106.081 2.89695ZM106.257 3.04178C106.195 3.0148 106.127 3.00327 106.059 3.00817H105.92V3.34223H106.068C106.12 3.34477 106.173 3.33783 106.223 3.3217C106.249 3.31004 106.271 3.29192 106.288 3.26908C106.305 3.24624 106.315 3.21946 106.319 3.19132C106.322 3.16318 106.318 3.13463 106.308 3.10843C106.297 3.08224 106.279 3.05928 106.257 3.04178Z" fill="#6F6E7A"/>
</g>
<defs>
<clipPath id="clip0_1138_3923">
<rect width="106.805" height="24.6932" fill="white" transform="translate(0.597656 0.65332)"/>
</clipPath>
</defs>
</svg>
