<svg width="97" height="14" viewBox="0 0 97 14" fill="none" xmlns="http://www.w3.org/2000/svg">
<g clip-path="url(#clip0_1138_3944)">
<path d="M41.6684 8.87112H47.909L44.5977 3.58561L38.5482 13.2016H35.8099L43.1246 1.6832C43.4432 1.23781 43.9529 0.919189 44.5892 0.919189C45.1622 0.919189 45.671 1.17273 45.9905 1.62066L53.377 13.1467H50.6464L49.3727 10.9814H43.068L41.6684 8.87112ZM70.2613 10.973V0.974969H67.9042V11.928C67.9042 12.2466 68.0309 12.501 68.2228 12.7562C68.4763 13.0098 68.7324 13.1382 69.051 13.1382H79.6854L81.0867 10.973H70.2613ZM31.6704 9.19819C33.9633 9.19819 35.7457 7.35156 35.7457 5.12292C35.7457 2.83005 33.899 1.04765 31.6704 1.04765H21.4805V13.2109H23.8368V3.14783H31.5419C32.0646 3.15093 32.5649 3.35993 32.9345 3.7295C33.3041 4.09908 33.5131 4.59943 33.5162 5.12208C33.5131 5.64458 33.3042 6.14481 32.9348 6.51436C32.5654 6.88391 32.0653 7.093 31.5428 7.09633H24.9845L31.9256 13.1459H35.3011L30.5886 9.19735L31.6704 9.19819ZM7.02608 13.1467C3.65059 13.1467 0.976562 10.4084 0.976562 7.09717C0.976562 3.72168 3.71482 1.04765 7.02608 1.04765H14.0948C17.4703 1.04765 20.1444 3.78591 20.1444 7.09717C20.1444 10.4727 17.4061 13.1467 14.0948 13.1467H7.02608ZM13.9672 10.9814C15.0125 10.9752 16.0132 10.5572 16.7524 9.81809C17.4915 9.07895 17.9095 8.07823 17.9157 7.03294C17.9095 5.98765 17.4915 4.98694 16.7524 4.24779C16.0132 3.50865 15.0125 3.09065 13.9672 3.08444H7.21709C6.17179 3.09065 5.17108 3.50865 4.43194 4.24779C3.69279 4.98694 3.27479 5.98765 3.26859 7.03294C3.27479 8.07823 3.69279 9.07895 4.43194 9.81809C5.17108 10.5572 6.17179 10.9752 7.21709 10.9814H13.9672ZM58.289 13.1467C54.9135 13.1467 52.2395 10.4084 52.2395 7.09717C52.2395 3.72168 54.9777 1.04765 58.289 1.04765H66.6948L65.2935 3.2129H58.4158C57.3705 3.21911 56.3698 3.63711 55.6306 4.37625C54.8915 5.1154 54.4735 6.11611 54.4673 7.1614C54.4735 8.2067 54.8915 9.20741 55.6306 9.94656C56.3698 10.6857 57.3705 11.1037 58.4158 11.1099H66.8215L65.4203 13.2752H58.2873L58.289 13.1467ZM86.8818 10.9814C85.107 10.9814 83.5705 9.7712 83.1243 8.11641H93.1223L94.5236 5.95116H83.1885C83.6339 4.29468 85.1628 3.08613 86.946 3.08613H93.8238L95.225 0.92088H86.8184C83.4429 0.92088 80.7689 3.65914 80.7689 6.9704C80.7689 10.3459 83.5072 13.0199 86.8184 13.0199H94.0148L95.416 10.8547H86.8827L86.8818 10.9814Z" fill="#6F6E7A"/>
</g>
<defs>
<clipPath id="clip0_1138_3944">
<rect width="95.501" height="12.6771" fill="white" transform="translate(0.787109 0.661377)"/>
</clipPath>
</defs>
</svg>
