<svg width="19" height="19" viewBox="0 0 19 19" fill="none" xmlns="http://www.w3.org/2000/svg">
<g clip-path="url(#clip0_1138_3872)">
<path d="M17.1183 8.62218V9.33802C17.1174 11.0159 16.574 12.6485 15.5694 13.9924C14.5648 15.3362 13.1526 16.3194 11.5436 16.7951C9.9346 17.2708 8.2149 17.2137 6.641 16.6322C5.0671 16.0508 3.72333 14.9761 2.8101 13.5685C1.89687 12.1609 1.46311 10.4959 1.57351 8.82162C1.68391 7.14738 2.33255 5.55368 3.4227 4.2782C4.51285 3.00273 5.9861 2.11381 7.62273 1.74404C9.25935 1.37427 10.9717 1.54344 12.5043 2.22634" stroke="white" stroke-width="1.8674" stroke-linecap="round" stroke-linejoin="round"/>
<path d="M17.117 3.11328L9.3362 10.9019L7.00195 8.56764" stroke="white" stroke-width="1.8674" stroke-linecap="round" stroke-linejoin="round"/>
</g>
<defs>
<clipPath id="clip0_1138_3872">
<rect width="18.674" height="18.674" fill="white"/>
</clipPath>
</defs>
</svg>
