<svg width="41" height="37" viewBox="0 0 41 37" fill="none" xmlns="http://www.w3.org/2000/svg">
<path d="M20.7572 18.0392L30.5526 36.0197L9.97599 35.5658L0.180664 17.5781L20.7572 18.0392Z" fill="#FF8B8B"/>
<path d="M20.7568 18.0394L31.2118 0.711426L41 18.6991L30.5522 36.02L20.7568 18.0394Z" fill="#FF495A"/>
<path d="M0.180664 17.578L10.6356 0.25708L31.2122 0.711037L20.7572 18.039L0.180664 17.578Z" fill="#FF495A"/>
<g style="mix-blend-mode:color-dodge">
<path d="M20.7572 18.0392L30.5526 36.0197L9.97599 35.5658L0.180664 17.5781L20.7572 18.0392Z" fill="#FF495A"/>
<path d="M20.7568 18.0394L31.2118 0.711426L41 18.6991L30.5522 36.02L20.7568 18.0394Z" fill="#FF8B8B"/>
<path d="M0.180664 17.578L10.6356 0.25708L31.2122 0.711037L20.7572 18.039L0.180664 17.578Z" fill="white"/>
</g>
</svg>
