<svg width="58" height="51" viewBox="0 0 58 51" fill="none" xmlns="http://www.w3.org/2000/svg">
<path d="M29.01 25.0699L42.82 50.4199L13.81 49.7799L0 24.4199L29.01 25.0699Z" fill="#FF8B8B"/>
<path d="M29.0098 25.0706L43.7498 0.640625L57.5498 26.0006L42.8198 50.4206L29.0098 25.0706Z" fill="#FF495A"/>
<path d="M0 24.42L14.74 0L43.75 0.640015L29.01 25.07L0 24.42Z" fill="#FF495A"/>
<g style="mix-blend-mode:color-dodge">
<path d="M29.01 25.0699L42.82 50.4199L13.81 49.7799L0 24.4199L29.01 25.0699Z" fill="#FF495A"/>
<path d="M29.0098 25.0706L43.7498 0.640625L57.5498 26.0006L42.8198 50.4206L29.0098 25.0706Z" fill="#FF8B8B"/>
<path d="M0 24.42L14.74 0L43.75 0.640015L29.01 25.07L0 24.42Z" fill="white"/>
</g>
</svg>
