<svg width="186" height="105" viewBox="0 0 186 105" fill="none" xmlns="http://www.w3.org/2000/svg">
<path opacity="0.2" d="M185.372 101.525L180.612 98.258L180.163 104.014L185.372 101.525ZM0.457418 1.18515C0.864323 2.20589 1.31909 3.26288 1.82255 4.35279L2.73038 3.93344C2.23397 2.8588 1.78629 1.81817 1.38633 0.814851L0.457418 1.18515ZM4.99455 10.4951C6.06816 12.3843 7.26721 14.3414 8.59523 16.3534L9.42983 15.8026C8.11355 13.8083 6.92617 11.8701 5.86396 10.001L4.99455 10.4951ZM12.5585 21.9929C13.8833 23.7703 15.3029 25.5787 16.8193 27.4102L17.5895 26.7725C16.0838 24.9539 14.6748 23.1588 13.3603 21.3952L12.5585 21.9929ZM21.3449 32.6199C22.8456 34.2688 24.4233 35.9301 26.0796 37.5982L26.7893 36.8936C25.1431 35.2357 23.5753 33.585 22.0845 31.9468L21.3449 32.6199ZM31.0309 42.3819C32.6787 43.9102 34.393 45.4399 36.1749 46.9669L36.8256 46.2076C35.0536 44.689 33.3491 43.1681 31.7109 41.6487L31.0309 42.3819ZM41.4919 51.3515C43.2576 52.753 45.0818 54.1488 46.9656 55.5358L47.5585 54.7305C45.6845 53.3507 43.8698 51.9622 42.1136 50.5683L41.4919 51.3515ZM52.5816 59.5207C54.4444 60.7944 56.3595 62.0577 58.3278 63.308L58.864 62.4639C56.9053 61.2196 54.9995 59.9625 53.146 58.6952L52.5816 59.5207ZM64.1935 66.9001C66.1378 68.0477 68.1295 69.1816 70.1692 70.2997L70.6499 69.4228C68.6195 68.3098 66.637 67.1811 64.7018 66.0389L64.1935 66.9001ZM76.2466 73.5098C78.2606 74.5344 80.3178 75.543 82.4187 76.5339L82.8453 75.6294C80.7533 74.6428 78.7051 73.6386 76.7001 72.6185L76.2466 73.5098ZM88.6792 79.3754C90.7538 80.281 92.8683 81.1691 95.023 82.038L95.397 81.1105C93.251 80.2452 91.1453 79.3607 89.0793 78.4589L88.6792 79.3754ZM101.446 84.5254C103.575 85.3167 105.741 86.0892 107.945 86.8416L108.268 85.8952C106.073 85.1457 103.915 84.3762 101.794 83.5881L101.446 84.5254ZM114.461 88.9728C116.62 89.6481 118.812 90.3042 121.039 90.94L121.314 89.9784C119.095 89.345 116.91 88.6912 114.76 88.0184L114.461 88.9728ZM127.68 92.748C129.882 93.319 132.117 93.8701 134.383 94.4005L134.611 93.4268C132.352 92.8982 130.126 92.349 127.931 91.78L127.68 92.748ZM141.071 95.8841C143.287 96.3494 145.532 96.7949 147.808 97.2198L147.991 96.2368C145.723 95.8133 143.485 95.3692 141.276 94.9055L141.071 95.8841ZM154.603 98.4122C156.836 98.7792 159.097 99.1266 161.386 99.4536L161.527 98.4636C159.246 98.1377 156.992 97.7913 154.765 97.4254L154.603 98.4122ZM168.189 100.355C170.451 100.631 172.739 100.888 175.052 101.124L175.154 100.129C172.847 99.8934 170.566 99.6375 168.311 99.3621L168.189 100.355Z" fill="#0F0E21"/>
</svg>
