<svg width="5" height="14" viewBox="0 0 5 14" fill="none" xmlns="http://www.w3.org/2000/svg">
<g opacity="0.5">
<path d="M4.37842 1.83521C4.37842 1.06647 3.54649 0.4375 2.52969 0.4375C1.51289 0.4375 0.680964 1.06647 0.680964 1.83521C0.680964 2.60395 1.51289 3.23292 2.52969 3.23292C3.54649 3.23292 4.37842 2.60395 4.37842 1.83521Z" fill="#A4A4A4"/>
<path d="M4.37842 11.6192C4.37842 10.8504 3.54649 10.2215 2.52969 10.2215C1.51289 10.2215 0.680963 10.8504 0.680963 11.6192C0.680963 12.3879 1.51289 13.0169 2.52969 13.0169C3.54649 13.0169 4.37842 12.3879 4.37842 11.6192Z" fill="#A4A4A4"/>
<path d="M4.37842 6.7272C4.37842 5.95846 3.54649 5.32949 2.52969 5.32949C1.51289 5.32949 0.680963 5.95846 0.680963 6.7272C0.680963 7.49594 1.51289 8.12491 2.52969 8.12491C3.54649 8.12491 4.37842 7.49594 4.37842 6.7272Z" fill="#A4A4A4"/>
</g>
</svg>
