<svg width="164" height="92" viewBox="0 0 164 92" fill="none" xmlns="http://www.w3.org/2000/svg">
<path d="M0.705149 89.2969L4.88651 86.4275L5.28079 91.4834L0.705149 89.2969ZM163.127 1.16263C162.769 2.05921 162.37 2.98762 161.928 3.94495L161.13 3.57661C161.566 2.63269 161.959 1.71865 162.311 0.837373L163.127 1.16263ZM159.141 9.34012C158.198 10.9995 157.145 12.7185 155.979 14.4858L155.246 14.002C156.402 12.2503 157.445 10.5479 158.378 8.90614L159.141 9.34012ZM152.498 19.4393C151.334 21.0005 150.087 22.5889 148.755 24.1977L148.079 23.6375C149.401 22.0401 150.639 20.4634 151.793 18.9143L152.498 19.4393ZM144.78 28.7736C143.462 30.222 142.076 31.6812 140.621 33.1464L139.998 32.5275C141.444 31.0713 142.821 29.6213 144.13 28.1824L144.78 28.7736ZM136.272 37.3482C134.825 38.6905 133.319 40.0342 131.754 41.3755L131.182 40.7085C132.739 39.3747 134.236 38.0387 135.675 36.7042L136.272 37.3482ZM127.084 45.2267C125.533 46.4577 123.93 47.6837 122.276 48.902L121.755 48.1947C123.401 46.9827 124.995 45.7631 126.538 44.5388L127.084 45.2267ZM117.343 52.4022C115.707 53.5209 114.025 54.6306 112.296 55.7288L111.825 54.9874C113.545 53.8945 115.219 52.7903 116.847 51.6771L117.343 52.4022ZM107.144 58.8839C105.436 59.8919 103.686 60.8879 101.895 61.87L101.473 61.0998C103.256 60.1221 104.997 59.1308 106.697 58.1275L107.144 58.8839ZM96.5566 64.6897C94.7876 65.5896 92.9807 66.4756 91.1353 67.3459L90.7606 66.5514C92.5981 65.6848 94.3972 64.8028 96.1583 63.9068L96.5566 64.6897ZM85.6363 69.8417C83.814 70.6372 81.9568 71.4172 80.0642 72.1804L79.7357 71.3658C81.6206 70.6057 83.4702 69.8289 85.2849 69.0367L85.6363 69.8417ZM74.4226 74.3653C72.5524 75.0603 70.6498 75.7389 68.7144 76.3997L68.4305 75.5685C70.3585 74.9102 72.2538 74.2343 74.1166 73.542L74.4226 74.3653ZM62.9904 78.2717C61.0943 78.8649 59.1685 79.4412 57.2126 79.9996L56.9715 79.155C58.9203 78.5986 60.8391 78.0244 62.7281 77.4334L62.9904 78.2717ZM51.3797 81.5877C49.4451 82.0892 47.4824 82.5733 45.4916 83.0392L45.2915 82.1839C47.2755 81.7197 49.2314 81.2372 51.1593 80.7374L51.3797 81.5877ZM39.6179 84.3424C37.6712 84.751 35.6988 85.1423 33.7004 85.5155L33.5392 84.6521C35.5312 84.2801 37.4972 83.8901 39.4374 83.4827L39.6179 84.3424ZM27.7317 86.5629C25.7698 86.8853 23.784 87.1904 21.774 87.4776L21.6497 86.6081C23.6537 86.3217 25.6335 86.0175 27.5893 85.6961L27.7317 86.5629ZM15.798 88.2691C13.8113 88.5118 11.8019 88.7371 9.76968 88.9445L9.68052 88.0707C11.707 87.8639 13.7106 87.6392 15.6915 87.3972L15.798 88.2691Z" fill="#0F0E21"/>
</svg>
