<svg width="22" height="22" viewBox="0 0 22 22" fill="none" xmlns="http://www.w3.org/2000/svg">
<path fill-rule="evenodd" clip-rule="evenodd" d="M7.26129 7.75224C7.26274 7.36564 7.57731 7.05342 7.96391 7.05488L12.157 7.07063C12.5436 7.07208 12.8558 7.38665 12.8544 7.77325C12.8529 8.15985 12.5384 8.47207 12.1518 8.47062L7.95865 8.45487C7.57206 8.45341 7.25983 8.13884 7.26129 7.75224ZM7.24947 10.8971C7.25093 10.5105 7.5655 10.1982 7.9521 10.1997L14.2418 10.2233C14.6283 10.2248 14.9406 10.5394 14.9391 10.926C14.9377 11.3125 14.6231 11.6248 14.2365 11.6233L7.94684 11.5997C7.56024 11.5982 7.24802 11.2837 7.24947 10.8971ZM7.23766 14.0419C7.23911 13.6553 7.55369 13.3431 7.94029 13.3445L11.0851 13.3563C11.4717 13.3578 11.7839 13.6724 11.7825 14.059C11.781 14.4456 11.4664 14.7578 11.0799 14.7563L7.93503 14.7445C7.54843 14.7431 7.23621 14.4285 7.23766 14.0419Z" fill="white"/>
<path fill-rule="evenodd" clip-rule="evenodd" d="M14.1612 2.53965C12.1654 2.06359 10.0866 2.05578 8.08731 2.51683C5.43229 3.1291 3.35328 5.19255 2.72108 7.84289C2.24503 9.83865 2.23722 11.9175 2.69827 13.9168C3.31054 16.5718 5.37399 18.6508 8.02433 19.283C10.0201 19.759 12.0989 19.7668 14.0982 19.3058C16.7532 18.6935 18.8322 16.6301 19.4644 13.9797C19.9405 11.984 19.9483 9.90514 19.4872 7.90587C18.875 5.25086 16.8115 3.17185 14.1612 2.53965ZM7.77271 1.15264C9.98246 0.643052 12.2801 0.651683 14.486 1.17786C17.6535 1.93342 20.1197 4.41815 20.8514 7.59128C21.361 9.80102 21.3524 12.0987 20.8262 14.3046C20.0706 17.4721 17.5859 19.9382 14.4128 20.67C12.203 21.1796 9.90535 21.1709 7.6995 20.6448C4.53195 19.8892 2.06582 17.4045 1.33407 14.2314C0.824484 12.0216 0.833115 9.72391 1.35929 7.51806C2.11486 4.35051 4.59958 1.88439 7.77271 1.15264Z" fill="white"/>
</svg>
