<svg width="45" height="45" viewBox="0 0 45 45" fill="none" xmlns="http://www.w3.org/2000/svg">
<g clip-path="url(#clip0_1138_4692)">
<mask id="mask0_1138_4692" style="mask-type:luminance" maskUnits="userSpaceOnUse" x="0" y="0" width="45" height="45">
<path d="M0 3.8147e-06H45V45H0V3.8147e-06Z" fill="white"/>
</mask>
<g mask="url(#mask0_1138_4692)">
<path d="M5.5918 35.501V42.488C5.5918 43.5118 6.42175 44.3418 7.44559 44.3418H13.7482C14.772 44.3418 15.602 43.5118 15.602 42.488V28.4711C15.602 27.4473 14.772 26.6173 13.7482 26.6173H7.44559C6.42175 26.6173 5.5918 27.4473 5.5918 28.4711V36.9003" stroke="white" stroke-width="1.5" stroke-miterlimit="10" stroke-linecap="round" stroke-linejoin="round"/>
<path d="M27.34 20.1887H21.0374C20.0135 20.1887 19.1836 21.0187 19.1836 22.0425V42.488C19.1836 43.5118 20.0135 44.3418 21.0374 44.3418H27.34C28.3639 44.3418 29.1938 43.5118 29.1938 42.488V22.0425C29.1938 21.0187 28.3639 20.1887 27.34 20.1887Z" stroke="white" stroke-width="1.5" stroke-miterlimit="10" stroke-linecap="round" stroke-linejoin="round"/>
<path d="M42.7856 21.1679V15.614C42.7856 14.5902 41.9557 13.7603 40.9318 13.7603H34.6292C33.6053 13.7603 32.7754 14.5902 32.7754 15.614V42.488C32.7754 43.5118 33.6053 44.3418 34.6292 44.3418H40.9318C41.9557 44.3418 42.7856 43.5118 42.7856 42.488V21.1679Z" stroke="white" stroke-width="1.5" stroke-miterlimit="10" stroke-linecap="round" stroke-linejoin="round"/>
<path d="M42.6862 0.669024L36.3192 1.4988L37.8582 3.55729L32.4057 7.634L29.5376 5.10522C29.0485 4.67402 28.3241 4.64493 27.8017 5.03526L15.6073 14.1527L12.7546 12.0156C12.2654 11.6491 11.5933 11.6488 11.1039 12.0148L1.27734 19.3618L2.92714 21.5684L11.9279 14.8388L14.7806 16.9757C15.2697 17.3422 15.9418 17.3425 16.4314 16.9765L28.5552 7.912L31.4231 10.4407C31.9123 10.8721 32.6368 10.9012 33.159 10.5108L39.508 5.76387L41.0485 7.8242L43.6443 1.95021C43.9336 1.29568 43.3958 0.576563 42.6862 0.669024Z" stroke="white" stroke-width="1.5" stroke-miterlimit="10" stroke-linecap="round" stroke-linejoin="round"/>
</g>
</g>
<defs>
<clipPath id="clip0_1138_4692">
<rect width="45" height="45" fill="white"/>
</clipPath>
</defs>
</svg>
