<svg width="157" height="88" viewBox="0 0 157 88" fill="none" xmlns="http://www.w3.org/2000/svg">
<path opacity="0.2" d="M0.980329 85.3319L4.97393 82.5914L5.35049 87.4202L0.980329 85.3319ZM156.108 1.15532C155.767 2.01164 155.386 2.89837 154.963 3.81271L154.202 3.46091C154.618 2.55938 154.994 1.68638 155.329 0.844676L156.108 1.15532ZM152.302 8.96561C151.401 10.5505 150.396 12.1923 149.281 13.8803L148.581 13.4181C149.686 11.7451 150.682 10.1191 151.573 8.55111L152.302 8.96561ZM145.957 18.6113C144.845 20.1024 143.654 21.6195 142.382 23.156L141.736 22.621C142.999 21.0953 144.181 19.5894 145.284 18.1099L145.957 18.6113ZM138.586 27.5265C137.327 28.9098 136.003 30.3034 134.613 31.7029L134.018 31.1118C135.399 29.7209 136.714 28.3361 137.965 26.9618L138.586 27.5265ZM130.46 35.716C129.077 36.9981 127.639 38.2813 126.144 39.5624L125.599 38.9254C127.085 37.6515 128.515 36.3755 129.889 35.1009L130.46 35.716ZM121.684 43.2408C120.203 44.4164 118.672 45.5874 117.092 46.751L116.595 46.0754C118.167 44.9179 119.689 43.753 121.162 42.5837L121.684 43.2408ZM112.381 50.094C110.818 51.1625 109.211 52.2223 107.56 53.2712L107.11 52.5631C108.753 51.5192 110.352 50.4646 111.907 49.4015L112.381 50.094ZM102.639 56.2847C101.008 57.2474 99.3372 58.1987 97.626 59.1367L97.2228 58.401C98.9261 57.4673 100.589 56.5204 102.213 55.5622L102.639 56.2847ZM92.5275 61.8297C90.838 62.6892 89.1122 63.5354 87.3497 64.3666L86.9918 63.6079C88.7468 62.7802 90.4651 61.9377 92.1471 61.082L92.5275 61.8297ZM82.0976 66.7504C80.3572 67.5102 78.5834 68.2552 76.7757 68.9841L76.462 68.2061C78.2623 67.4801 80.0288 66.7381 81.762 65.9816L82.0976 66.7504ZM71.3875 71.0709C69.6013 71.7347 67.7841 72.3827 65.9356 73.0139L65.6645 72.22C67.5059 71.5913 69.3161 70.9457 71.0952 70.2845L71.3875 71.0709ZM60.4686 74.8018C58.6577 75.3684 56.8184 75.9188 54.9503 76.4522L54.72 75.6455C56.5813 75.1141 58.414 74.5656 60.2182 74.0012L60.4686 74.8018ZM49.3793 77.9689C47.5315 78.4479 45.657 78.9103 43.7556 79.3552L43.5645 78.5384C45.4595 78.095 47.3275 77.6342 49.1688 77.1568L49.3793 77.9689ZM38.1457 80.5999C36.2864 80.9902 34.4026 81.3639 32.494 81.7204L32.3399 80.8957C34.2425 80.5404 36.1202 80.1679 37.9733 79.7789L38.1457 80.5999ZM26.7933 82.7207C24.9195 83.0286 23.0228 83.3201 21.1031 83.5943L20.9844 82.7638C22.8984 82.4904 24.7893 82.1999 26.6572 81.8929L26.7933 82.7207ZM15.3954 84.3503C13.498 84.5821 11.5788 84.7973 9.63783 84.9954L9.55267 84.1608C11.4881 83.9633 13.4018 83.7487 15.2937 83.5176L15.3954 84.3503Z" fill="#0F0E21"/>
</svg>
