<svg width="149" height="83" viewBox="0 0 149 83" fill="none" xmlns="http://www.w3.org/2000/svg">
<path opacity="0.2" d="M148.259 80.5914L143.89 77.5884L143.474 82.8742L148.259 80.5914ZM0.842994 0.652455C1.2108 1.57511 1.62756 2.53476 2.09424 3.52755L2.92535 3.13687C2.46602 2.1597 2.05665 1.21693 1.69607 0.312389L0.842994 0.652455ZM5.042 9.08138C6.04578 10.7871 7.17464 12.5572 8.43246 14.3775L9.18798 13.8554C7.94232 12.0528 6.82553 10.3014 5.83347 8.61561L5.042 9.08138ZM12.1752 19.4421C13.4184 21.0216 14.7534 22.6269 16.1824 24.2498L16.8717 23.6429C15.4537 22.0326 14.1295 20.4402 12.8968 18.8741L12.1752 19.4421ZM20.4583 28.8608C21.8752 30.3138 23.3668 31.7744 24.9348 33.237L25.5612 32.5655C24.0038 31.1127 22.5225 29.6622 21.1158 28.2196L20.4583 28.8608ZM29.6247 37.4173C31.1813 38.7439 32.802 40.0676 34.4881 41.3843L35.0534 40.6606C33.3776 39.3519 31.767 38.0364 30.2203 36.7184L29.6247 37.4173ZM39.5 45.135C41.1649 46.3291 42.886 47.5138 44.664 48.6859L45.1694 47.9192C43.4015 46.7537 41.6904 45.5758 40.0352 44.3888L39.5 45.135ZM49.964 52.0365C51.721 53.1013 53.528 54.1525 55.3859 55.1874L55.8328 54.3852C53.9848 53.3557 52.1874 52.3101 50.44 51.2511L49.964 52.0365ZM60.917 58.1407C62.748 59.0773 64.6241 59.9973 66.546 60.8987L66.9359 60.0673C65.0236 59.1703 63.1569 58.2549 61.3352 57.3231L60.917 58.1407ZM72.2628 63.4648C74.1536 64.2764 76.0854 65.0697 78.0586 65.8427L78.3936 64.9876C76.4295 64.2181 74.5068 63.4286 72.625 62.6209L72.2628 63.4648ZM83.9256 68.0365C85.8653 68.7279 87.8424 69.3998 89.8572 70.0506L90.1395 69.1767C88.1333 68.5287 86.165 67.8598 84.234 67.1714L83.9256 68.0365ZM95.8477 71.8895C97.8282 72.4664 99.843 73.0229 101.893 73.558L102.124 72.6694C100.083 72.1365 98.0767 71.5822 96.1045 71.0078L95.8477 71.8895ZM107.988 75.0607C109.995 75.5269 112.034 75.9725 114.104 76.3965L114.288 75.4969C112.226 75.0744 110.195 74.6305 108.196 74.1662L107.988 75.0607ZM120.241 77.5727C122.27 77.9353 124.329 78.2773 126.416 78.5979L126.555 77.6902C124.475 77.3707 122.424 77.0299 120.403 76.6687L120.241 77.5727ZM132.629 79.4764C134.679 79.7418 136.756 79.9867 138.861 80.2104L138.958 79.2972C136.86 79.0742 134.79 78.8301 132.747 78.5657L132.629 79.4764Z" fill="#0F0E21"/>
</svg>
